<?xml version="1.0" encoding="UTF-8"?>
<svg xmlns="http://www.w3.org/2000/svg" xmlns:xlink="http://www.w3.org/1999/xlink" width="500pt" height="500pt" viewBox="0 0 500 500" version="1.1">
<g id="surface13458968">
<path style=" stroke:none;fill-rule:nonzero;fill:rgb(100%,100%,100%);fill-opacity:1;" d="M 90 40 C 62.503906 40 40 62.503906 40 90 L 40 410 C 40 437.496094 62.503906 460 90 460 L 410 460 C 437.496094 460 460 437.496094 460 410 L 460 90 C 460 62.503906 437.496094 40 410 40 Z M 90 60 L 410 60 C 426.683594 60 440 73.316406 440 90 L 440 410 C 440 426.683594 426.683594 440 410 440 L 90 440 C 73.316406 440 60 426.683594 60 410 L 60 90 C 60 73.316406 73.316406 60 90 60 Z M 140 110.117188 C 129.046875 110.117188 119.191406 113.390625 111.894531 119.53125 C 104.597656 125.671875 100.117188 134.84375 100.117188 144.667969 C 100.117188 163.339844 116.3125 177.894531 136.914062 179.335938 C 136.925781 179.34375 136.941406 179.347656 136.953125 179.355469 C 137.933594 179.691406 138.964844 179.867188 140 179.882812 C 162.730469 179.882812 179.882812 163.960938 179.882812 144.667969 C 179.882812 144.492188 179.875 144.316406 179.863281 144.140625 C 178.847656 125.136719 161.90625 110.117188 140 110.117188 Z M 140 129.882812 C 153.921875 129.882812 159.417969 136.101562 160.019531 144.921875 C 159.898438 153.484375 154.601562 160.117188 140 160.117188 C 126.144531 160.117188 119.882812 153.023438 119.882812 144.667969 C 119.882812 140.492188 121.40625 137.34375 124.609375 134.648438 C 127.8125 131.953125 132.953125 129.882812 140 129.882812 Z M 110 190 C 104.476562 190 100 194.476562 100 200 L 100 390 C 100 395.523438 104.476562 400 110 400 L 170 400 C 175.523438 400 180 395.523438 180 390 L 180 200 C 180 194.476562 175.523438 190 170 190 Z M 200 190 C 194.476562 190 190 194.476562 190 200 L 190 390 C 190 395.523438 194.476562 400 200 400 L 260 400 C 265.523438 400 270 395.523438 270 390 L 270 290 C 270 281.703125 272.265625 273.449219 276.25 268.046875 C 280.234375 262.644531 285.265625 259.402344 294.824219 259.570312 C 304.683594 259.738281 309.898438 263.117188 313.847656 268.417969 C 317.796875 273.71875 320 281.667969 320 290 L 320 390 C 320 395.523438 324.476562 400 330 400 L 390 400 C 395.523438 400 400 395.523438 400 390 L 400 282.617188 C 400 253 391.226562 229.542969 376.191406 213.671875 C 361.15625 197.800781 340.242188 190 318.125 190 C 297.105469 190 281.109375 197.050781 270 204.238281 L 270 200 C 270 194.476562 265.523438 190 260 190 Z M 120 210 L 160 210 L 160 380 L 120 380 Z M 210 210 L 250 210 L 250 225.605469 C 250 229.90625 252.75 233.722656 256.828125 235.085938 C 260.90625 236.449219 265.402344 235.054688 267.988281 231.621094 C 267.988281 231.621094 283.691406 210 318.125 210 C 335.660156 210 350.695312 215.824219 361.679688 227.421875 C 372.664062 239.019531 380 256.882812 380 282.617188 L 380 380 L 340 380 L 340 290 C 340 278.332031 337.203125 266.269531 329.902344 256.464844 C 322.601562 246.660156 310.316406 239.832031 295.175781 239.570312 C 279.957031 239.300781 267.476562 246.269531 260.15625 256.191406 C 252.835938 266.113281 250 278.296875 250 290 L 250 380 L 210 380 Z M 210 210 "/>
</g>
</svg>
